<?xml version="1.0" encoding="UTF-8"?>
<svg version="1.1" xmlns="http://www.w3.org/2000/svg" width="168" height="168">
<path d="M0 0 C4.45024262 0.89004852 6.81132382 1.7925062 10.65625 3.95703125 C11.75171143 4.56957764 12.84717285 5.18212402 13.97583008 5.81323242 C15.15069082 6.47941263 16.32541121 7.14584041 17.5 7.8125 C18.70764783 8.49178785 19.91557711 9.17057557 21.1237793 9.84887695 C24.17287072 11.56327175 27.21692809 13.28638418 30.25921631 15.01281738 C31.91215456 15.95018365 33.56663072 16.88483645 35.22119141 17.81933594 C38.08721985 19.43811556 40.95071686 21.06122876 43.8125 22.6875 C44.658125 23.16743408 45.50375 23.64736816 46.375 24.1418457 C47.56029297 24.81993286 47.56029297 24.81993286 48.76953125 25.51171875 C49.78430542 26.09119263 49.78430542 26.09119263 50.81958008 26.68237305 C51.53911865 27.11718994 52.25865723 27.55200684 53 28 C54.02092239 28.5149855 55.04184479 29.02997101 56.09370422 29.56056213 C59 32 59 32 59.7215271 35.74591064 C59.73888247 37.28011223 59.72304369 38.81490505 59.68115234 40.34863281 C59.68246658 41.60771957 59.68246658 41.60771957 59.68380737 42.89224243 C59.679631 45.66348728 59.63297912 48.43230376 59.5859375 51.203125 C59.57474548 53.12553586 59.56620532 55.04796385 59.56021118 56.97039795 C59.5373133 62.02774388 59.47838166 67.08405419 59.4119873 72.14099121 C59.35058553 77.30218495 59.32320066 82.46354621 59.29296875 87.625 C59.22863948 97.75045477 59.12624822 107.87514124 59 118 C54.72601443 117.24206278 51.64945097 115.90246746 47.8515625 113.76171875 C47.27594574 113.43967972 46.70032898 113.11764069 46.10726929 112.7858429 C44.27618887 111.75941548 42.45060237 110.72363313 40.625 109.6875 C39.40659834 109.00263513 38.18785121 108.31838448 36.96875 107.63476562 C31.29728574 104.44963224 25.64765539 101.22723165 20 98 C20 111.86 20 125.72 20 140 C15.58949388 139.11789878 13.25670281 138.24880979 9.44921875 136.11328125 C8.36898437 135.51088623 7.28875 134.90849121 6.17578125 134.2878418 C5.01284858 133.62969881 3.85009205 132.97124451 2.6875 132.3125 C1.48977956 131.64003124 0.29186031 130.96791646 -0.90625 130.29614258 C-30.56267053 113.62488632 -30.56267053 113.62488632 -39 108 C-39.28621686 105.18882089 -39.37819403 102.59884571 -39.34057617 99.78662109 C-39.34101425 98.9377684 -39.34145233 98.08891571 -39.34190369 97.21434021 C-39.33980882 94.40047432 -39.31644515 91.58719967 -39.29296875 88.7734375 C-39.28737527 86.82573777 -39.283104 84.87803382 -39.28010559 82.93032837 C-39.26863727 77.79769285 -39.23915304 72.665311 -39.20599365 67.53277588 C-39.17533553 62.29792716 -39.16160937 57.06303756 -39.14648438 51.828125 C-39.11428521 41.55197173 -39.06306492 31.27600694 -39 21 C-36 20 -36 20 -33.10839844 21.29174805 C-31.93623087 21.93794706 -30.7702409 22.59543029 -29.609375 23.26171875 C-28.98653625 23.60878372 -28.36369751 23.95584869 -27.72198486 24.31343079 C-25.72586575 25.42869347 -23.73800689 26.55785224 -21.75 27.6875 C-20.42629776 28.42995808 -19.10208413 29.1715052 -17.77734375 29.91210938 C-11.83270569 33.24193195 -5.91600225 36.61942729 0 40 C0 26.8 0 13.6 0 0 Z " fill="#563FD6" transform="translate(74,14)"/>
<path d="M0 0 C4.60556554 0.92111311 7.14101442 1.97942455 11.1484375 4.23828125 C12.01186264 4.7213398 12.01186264 4.7213398 12.89273071 5.2141571 C14.72381113 6.24058452 16.54939763 7.27636687 18.375 8.3125 C19.59340166 8.99736487 20.81214879 9.68161552 22.03125 10.36523438 C27.70273501 13.54998244 33.35817072 16.76302125 39 20 C34.88645034 23.68801004 30.35595827 25.94480512 25.42578125 28.33984375 C22.40978571 30.40393088 21.79454158 31.44162358 21 35 C21.0366883 36.35953406 21.11345023 37.71827227 21.21875 39.07421875 C21.9026936 48.48276233 21.9026936 48.48276233 20 53 C15.23953883 57.86534602 8.38400942 60.83380265 2 63 C1.34 63 0.68 63 0 63 C0 56.07 0 49.14 0 42 C-5.83636455 45.28637045 -5.83636455 45.28637045 -11.66748047 48.58203125 C-12.39338379 48.98808594 -13.11928711 49.39414062 -13.8671875 49.8125 C-14.61081543 50.23144531 -15.35444336 50.65039062 -16.12060547 51.08203125 C-18 52 -18 52 -20 52 C-20 74.11 -20 96.22 -20 119 C-35 111 -35 111 -39 108 C-39.38113057 105.09716191 -39.50609201 102.57511294 -39.45410156 99.6730957 C-39.45468567 98.82409698 -39.45526978 97.97509827 -39.45587158 97.10037231 C-39.45308295 94.29176058 -39.42195464 91.48420776 -39.390625 88.67578125 C-39.38316537 86.72951335 -39.37747113 84.78323793 -39.37347412 82.83695984 C-39.3581959 77.71246634 -39.31889517 72.58842578 -39.2746582 67.46411133 C-39.2337527 62.23590218 -39.2154732 57.0076199 -39.1953125 51.77929688 C-39.1524031 41.51933216 -39.08412525 31.25970373 -39 21 C-36 20 -36 20 -33.10839844 21.29174805 C-31.93623087 21.93794706 -30.7702409 22.59543029 -29.609375 23.26171875 C-28.98653625 23.60878372 -28.36369751 23.95584869 -27.72198486 24.31343079 C-25.72586575 25.42869347 -23.73800689 26.55785224 -21.75 27.6875 C-20.42629776 28.42995808 -19.10208413 29.1715052 -17.77734375 29.91210938 C-11.83270569 33.24193195 -5.91600225 36.61942729 0 40 C0 26.8 0 13.6 0 0 Z " fill="#563DD4" transform="translate(74,14)"/>
<path d="M0 0 C0.39561415 8.30119534 0.69672098 16.59840382 0.88080692 24.90672112 C0.96921717 28.76608981 1.08879093 32.61897571 1.2824707 36.47460938 C2.50481231 61.43021985 2.50481231 61.43021985 -1.69122314 67.41027832 C-6.29707475 71.56209603 -12.65170439 75 -19 75 C-19 68.07 -19 61.14 -19 54 C-24.83636455 57.28637045 -24.83636455 57.28637045 -30.66748047 60.58203125 C-31.39338379 60.98808594 -32.11928711 61.39414063 -32.8671875 61.8125 C-33.61081543 62.23144531 -34.35444336 62.65039062 -35.12060547 63.08203125 C-37 64 -37 64 -39 64 C-39 71.59 -39 79.18 -39 87 C-41.70182292 88.46484375 -44.40364583 89.9296875 -47.10546875 91.39453125 C-50.00616853 92.95562289 -50.00616853 92.95562289 -52.67578125 94.76171875 C-53.44277344 95.17035156 -54.20976563 95.57898438 -55 96 C-55.99 95.67 -56.98 95.34 -58 95 C-57.7215625 93.9171875 -57.7215625 93.9171875 -57.4375 92.8125 C-56.96885258 89.79976656 -57.38609591 87.96160721 -58 85 C-58.69079509 77.39276394 -58.82355614 69.73377286 -59.00927734 62.10083008 C-59.08618902 59.58302728 -59.19538738 57.06599618 -59.33740234 54.55102539 C-60.46507372 34.13910205 -60.46507372 34.13910205 -56.30554199 28.84222412 C-51.71712602 24.95584994 -45.20030043 21 -39 21 C-39 27.93 -39 34.86 -39 42 C-33.16363545 38.71362955 -33.16363545 38.71362955 -27.33251953 35.41796875 C-26.60661621 35.01191406 -25.88071289 34.60585937 -25.1328125 34.1875 C-24.38918457 33.76855469 -23.64555664 33.34960938 -22.87939453 32.91796875 C-21 32 -21 32 -19 32 C-19.02320313 30.75863281 -19.04640625 29.51726562 -19.0703125 28.23828125 C-19.08907731 26.5963602 -19.10727675 24.95443262 -19.125 23.3125 C-19.14175781 22.49587891 -19.15851563 21.67925781 -19.17578125 20.83789062 C-19.24114552 12.76540288 -19.24114552 12.76540288 -17 9 C-15.046875 7.3046875 -15.046875 7.3046875 -12.75 5.875 C-11.54923828 5.12476563 -11.54923828 5.12476563 -10.32421875 4.359375 C-2.87068966 0 -2.87068966 0 0 0 Z " fill="#2AABFE" transform="translate(113,35)"/>
<path d="M0 0 C0.33 0 0.66 0 1 0 C1 28.71 1 57.42 1 87 C0.67 87 0.34 87 0 87 C0 58.29 0 29.58 0 0 Z " fill="#5039C4" transform="translate(33,35)"/>
<path d="M0 0 C0.33 0 0.66 0 1 0 C1 28.05 1 56.1 1 85 C0.67 85 0.34 85 0 85 C0 56.95 0 28.9 0 0 Z " fill="#4F38C3" transform="translate(134,46)"/>
<path d="M0 0 C0.66 0 1.32 0 2 0 C1.67 0.99 1.34 1.98 1 3 C0.92667227 5.72265862 0.90823974 8.41892343 0.9375 11.140625 C0.94128662 11.9410321 0.94507324 12.74143921 0.94897461 13.56610107 C0.96529118 16.98700245 0.99330182 20.40778388 1.02050781 23.82861328 C1.03869537 26.3284448 1.05072972 28.8282563 1.0625 31.328125 C1.07079834 32.09191467 1.07909668 32.85570435 1.08764648 33.64263916 C1.10827434 38.20479046 0.754876 42.49897755 0 47 C-0.33 47 -0.66 47 -1 47 C-1.02527002 40.46721214 -1.04283292 33.93443679 -1.05493164 27.40161133 C-1.05997317 25.17732268 -1.06680623 22.95303737 -1.07543945 20.72875977 C-1.08751298 17.53921691 -1.09322996 14.34971771 -1.09765625 11.16015625 C-1.10281754 10.15912369 -1.10797882 9.15809113 -1.11329651 8.12672424 C-1.11337204 7.20584518 -1.11344757 6.28496613 -1.11352539 5.33618164 C-1.115746 4.52121719 -1.11796661 3.70625275 -1.12025452 2.86659241 C-1 1 -1 1 0 0 Z " fill="#3DA1FE" transform="translate(56,65)"/>
<path d="M0 0 C1.485 0.99 1.485 0.99 3 2 C2.34 2 1.68 2 1 2 C1 14.54 1 27.08 1 40 C0.67 40 0.34 40 0 40 C0 26.8 0 13.6 0 0 Z " fill="#5139C8" transform="translate(95,113)"/>
<path d="M0 0 C0.33 0 0.66 0 1 0 C1 12.54 1 25.08 1 38 C0.01 37.34 -0.98 36.68 -2 36 C-1.34 36 -0.68 36 0 36 C0 24.12 0 12.24 0 0 Z " fill="#4F37C1" transform="translate(72,15)"/>
<path d="M0 0 C0.66 0.33 1.32 0.66 2 1 C1.5155542 1.39421143 1.0311084 1.78842285 0.53198242 2.19458008 C-1.44186491 4.52073163 -1.42012916 5.8642623 -1.51171875 8.88671875 C-1.54716797 9.82451172 -1.58261719 10.76230469 -1.61914062 11.72851562 C-1.64169922 12.70498047 -1.66425781 13.68144531 -1.6875 14.6875 C-1.72166016 15.67556641 -1.75582031 16.66363281 -1.79101562 17.68164062 C-1.87350538 20.12098053 -1.94265068 22.55996063 -2 25 C-2.33 25 -2.66 25 -3 25 C-3.0867982 21.20847666 -3.14032207 17.41720704 -3.1875 13.625 C-3.21263672 12.54476562 -3.23777344 11.46453125 -3.26367188 10.3515625 C-3.27333984 9.3203125 -3.28300781 8.2890625 -3.29296875 7.2265625 C-3.31653442 5.79691162 -3.31653442 5.79691162 -3.34057617 4.33837891 C-3.22818604 3.56671387 -3.1157959 2.79504883 -3 2 C-2.01 1.34 -1.02 0.68 0 0 Z " fill="#4E33C3" transform="translate(78,97)"/>
<path d="M0 0 C2 1 2 1 2 1 Z " fill="#4F38BE" transform="translate(91,155)"/>
<path d="M0 0 C2 1 2 1 2 1 Z " fill="#573ECF" transform="translate(80,149)"/>
<path d="M0 0 C2 1 2 1 2 1 Z " fill="#583FD8" transform="translate(73,145)"/>
<path d="M0 0 C2 1 2 1 2 1 Z " fill="#5E42E4" transform="translate(66,141)"/>
<path d="M0 0 C2 1 2 1 2 1 Z " fill="#6447EB" transform="translate(57,136)"/>
<path d="M0 0 C2 1 2 1 2 1 Z " fill="#4E38BE" transform="translate(130,133)"/>
<path d="M0 0 C2 1 2 1 2 1 Z " fill="#5139C8" transform="translate(50,132)"/>
<path d="M0 0 C2 1 2 1 2 1 Z " fill="#5A40D0" transform="translate(119,127)"/>
<path d="M0 0 C2 1 2 1 2 1 Z " fill="#523AC9" transform="translate(41,127)"/>
<path d="M0 0 C2 1 2 1 2 1 Z " fill="#583FD8" transform="translate(112,123)"/>
<path d="M0 0 C2 1 2 1 2 1 Z " fill="#5E42E3" transform="translate(105,119)"/>
<path d="M0 0 C2 1 2 1 2 1 Z " fill="#5E43E7" transform="translate(103,118)"/>
<path d="M0 0 C2 1 2 1 2 1 Z " fill="#583FD4" transform="translate(56,43)"/>
<path d="M0 0 C2 1 2 1 2 1 Z " fill="#543BCF" transform="translate(54,42)"/>
<path d="M0 0 C2 1 2 1 2 1 Z " fill="#4F38BE" transform="translate(127,41)"/>
<path d="M0 0 C2 1 2 1 2 1 Z " fill="#4E37BE" transform="translate(125,40)"/>
<path d="M0 0 C2 1 2 1 2 1 Z " fill="#4F38BF" transform="translate(116,35)"/>
<path d="M0 0 C2 1 2 1 2 1 Z " fill="#4F39BF" transform="translate(40,34)"/>
<path d="M0 0 C2 1 2 1 2 1 Z " fill="#4F38BE" transform="translate(36,32)"/>
<path d="M0 0 C2 1 2 1 2 1 Z " fill="#6245E3" transform="translate(109,31)"/>
<path d="M0 0 C2 1 2 1 2 1 Z " fill="#5B41DF" transform="translate(104,28)"/>
<path d="M0 0 C2 1 2 1 2 1 Z " fill="#5C41E0" transform="translate(102,27)"/>
<path d="M0 0 C2 1 2 1 2 1 Z " fill="#573DD4" transform="translate(93,22)"/>
<path d="M0 0 C2 1 2 1 2 1 Z " fill="#533BCB" transform="translate(88,19)"/>
<path d="M0 0 C2 1 2 1 2 1 Z " fill="#573DCA" transform="translate(86,18)"/>
<path d="M0 0 C2 1 2 1 2 1 Z " fill="#4E38BF" transform="translate(75,12)"/>
<path d="" fill="#573EC6" transform="translate(0,0)"/>
<path d="" fill="#5C40CA" transform="translate(0,0)"/>
<path d="" fill="#4E36BE" transform="translate(0,0)"/>
<path d="" fill="#4F38C2" transform="translate(0,0)"/>
<path d="" fill="#5139C6" transform="translate(0,0)"/>
<path d="" fill="#533BCD" transform="translate(0,0)"/>
<path d="" fill="#553CD0" transform="translate(0,0)"/>
<path d="" fill="#573ED4" transform="translate(0,0)"/>
<path d="" fill="#5A3FDB" transform="translate(0,0)"/>
<path d="" fill="#5A40DD" transform="translate(0,0)"/>
<path d="" fill="#5C42E1" transform="translate(0,0)"/>
<path d="" fill="#5E42E5" transform="translate(0,0)"/>
<path d="" fill="#5E42E5" transform="translate(0,0)"/>
<path d="" fill="#5E42E5" transform="translate(0,0)"/>
<path d="" fill="#5D41E4" transform="translate(0,0)"/>
<path d="" fill="#5D41E3" transform="translate(0,0)"/>
<path d="" fill="#5C43DB" transform="translate(0,0)"/>
<path d="" fill="#6045D1" transform="translate(0,0)"/>
<path d="" fill="#4E37BE" transform="translate(0,0)"/>
<path d="" fill="#4E37BE" transform="translate(0,0)"/>
<path d="" fill="#5239C8" transform="translate(0,0)"/>
<path d="" fill="#4F38C0" transform="translate(0,0)"/>
<path d="" fill="#533AC8" transform="translate(0,0)"/>
<path d="" fill="#5038C3" transform="translate(0,0)"/>
<path d="" fill="#513AC8" transform="translate(0,0)"/>
<path d="" fill="#5139C6" transform="translate(0,0)"/>
<path d="" fill="#533ACA" transform="translate(0,0)"/>
<path d="" fill="#533BCD" transform="translate(0,0)"/>
<path d="" fill="#513AC8" transform="translate(0,0)"/>
<path d="" fill="#553DD2" transform="translate(0,0)"/>
<path d="" fill="#5239C6" transform="translate(0,0)"/>
<path d="" fill="#573ED4" transform="translate(0,0)"/>
<path d="" fill="#5038C4" transform="translate(0,0)"/>
<path d="" fill="#5A3FDB" transform="translate(0,0)"/>
<path d="" fill="#5C41DF" transform="translate(0,0)"/>
<path d="" fill="#5D42E1" transform="translate(0,0)"/>
<path d="" fill="#6044E8" transform="translate(0,0)"/>
<path d="" fill="#5F44E9" transform="translate(0,0)"/>
<path d="" fill="#5F44EA" transform="translate(0,0)"/>
<path d="" fill="#6849EE" transform="translate(0,0)"/>
<path d="" fill="#5C42E2" transform="translate(0,0)"/>
<path d="" fill="#5D41E0" transform="translate(0,0)"/>
<path d="" fill="#5C41E0" transform="translate(0,0)"/>
<path d="" fill="#5B40DD" transform="translate(0,0)"/>
<path d="" fill="#593FDB" transform="translate(0,0)"/>
<path d="" fill="#4E37BE" transform="translate(0,0)"/>
<path d="" fill="#573DD6" transform="translate(0,0)"/>
<path d="" fill="#4E37BE" transform="translate(0,0)"/>
<path d="" fill="#4E37BE" transform="translate(0,0)"/>
<path d="" fill="#523BCC" transform="translate(0,0)"/>
<path d="" fill="#5139C6" transform="translate(0,0)"/>
<path d="" fill="#4E38BE" transform="translate(0,0)"/>
<path d="" fill="#5038C2" transform="translate(0,0)"/>
<path d="" fill="#4E38BE" transform="translate(0,0)"/>
<path d="" fill="#4E37BE" transform="translate(0,0)"/>
<path d="" fill="#4E38BE" transform="translate(0,0)"/>
<path d="" fill="#4E37BE" transform="translate(0,0)"/>
<path d="" fill="#4E38BE" transform="translate(0,0)"/>
<path d="" fill="#4E38BE" transform="translate(0,0)"/>
<path d="" fill="#4E38BE" transform="translate(0,0)"/>
<path d="" fill="#5E42CC" transform="translate(0,0)"/>
<path d="" fill="#5640D6" transform="translate(0,0)"/>
<path d="" fill="#4E38BE" transform="translate(0,0)"/>
<path d="" fill="#6853FE" transform="translate(0,0)"/>
<path d="" fill="#5B41DE" transform="translate(0,0)"/>
<path d="" fill="#5C41DE" transform="translate(0,0)"/>
<path d="" fill="#5B40DE" transform="translate(0,0)"/>
<path d="" fill="#5A3FDC" transform="translate(0,0)"/>
<path d="" fill="#593EDA" transform="translate(0,0)"/>
<path d="" fill="#573ED6" transform="translate(0,0)"/>
<path d="" fill="#563CD2" transform="translate(0,0)"/>
<path d="" fill="#543BCC" transform="translate(0,0)"/>
<path d="" fill="#4E38C2" transform="translate(0,0)"/>
<path d="" fill="#4E38BE" transform="translate(0,0)"/>
<path d="" fill="#4E36BC" transform="translate(0,0)"/>
<path d="" fill="#5C42CA" transform="translate(0,0)"/>
<path d="" fill="#563EC6" transform="translate(0,0)"/>
</svg>
